<svg width="18" height="18" viewBox="0 0 18 18" fill="none" xmlns="http://www.w3.org/2000/svg">
<path d="M12.5 4H1.5V13.5H3L4 15H5.5L7 13.5H10.5L12 15H13.5L14.5 13.5H16V9.5L14.5 6L12.5 5.5V4Z" fill="white"/>
<path d="M16.83 9.34313L15.1425 5.40562C15.0994 5.30395 15.0274 5.2172 14.9354 5.15619C14.8434 5.09517 14.7354 5.06259 14.625 5.0625H12.9375V3.9375C12.9375 3.78832 12.8782 3.64524 12.7727 3.53975C12.6673 3.43426 12.5242 3.375 12.375 3.375H1.6875C1.53832 3.375 1.39524 3.43426 1.28975 3.53975C1.18426 3.64524 1.125 3.78832 1.125 3.9375V13.5C1.125 13.6492 1.18426 13.7923 1.28975 13.8977C1.39524 14.0032 1.53832 14.0625 1.6875 14.0625H2.89125C3.02078 14.5391 3.30356 14.9599 3.69596 15.2599C4.08836 15.5599 4.56857 15.7224 5.0625 15.7224C5.55643 15.7224 6.03664 15.5599 6.42904 15.2599C6.82144 14.9599 7.10422 14.5391 7.23375 14.0625H10.7662C10.8958 14.5391 11.1786 14.9599 11.571 15.2599C11.9634 15.5599 12.4436 15.7224 12.9375 15.7224C13.4314 15.7224 13.9116 15.5599 14.304 15.2599C14.6964 14.9599 14.9792 14.5391 15.1088 14.0625H16.3125C16.4617 14.0625 16.6048 14.0032 16.7102 13.8977C16.8157 13.7923 16.875 13.6492 16.875 13.5V9.5625C16.8749 9.4871 16.8596 9.4125 16.83 9.34313ZM12.9375 6.1875H14.2537L15.4575 9H12.9375V6.1875ZM5.0625 14.625C4.84 14.625 4.62249 14.559 4.43748 14.4354C4.25248 14.3118 4.10828 14.1361 4.02314 13.9305C3.93799 13.725 3.91571 13.4988 3.95912 13.2805C4.00252 13.0623 4.10967 12.8618 4.267 12.7045C4.42434 12.5472 4.62479 12.44 4.84302 12.3966C5.06125 12.3532 5.28745 12.3755 5.49302 12.4606C5.69859 12.5458 5.87429 12.69 5.9979 12.875C6.12152 13.06 6.1875 13.2775 6.1875 13.5C6.1875 13.7984 6.06897 14.0845 5.858 14.2955C5.64702 14.5065 5.36087 14.625 5.0625 14.625ZM10.7662 12.9375H7.23375C7.10422 12.4609 6.82144 12.0401 6.42904 11.7401C6.03664 11.4401 5.55643 11.2776 5.0625 11.2776C4.56857 11.2776 4.08836 11.4401 3.69596 11.7401C3.30356 12.0401 3.02078 12.4609 2.89125 12.9375H2.25V4.5H11.8125V11.565C11.5564 11.7137 11.3321 11.9114 11.1526 12.1469C10.973 12.3825 10.8417 12.6511 10.7662 12.9375ZM12.9375 14.625C12.715 14.625 12.4975 14.559 12.3125 14.4354C12.1275 14.3118 11.9833 14.1361 11.8981 13.9305C11.813 13.725 11.7907 13.4988 11.8341 13.2805C11.8775 13.0623 11.9847 12.8618 12.142 12.7045C12.2993 12.5472 12.4998 12.44 12.718 12.3966C12.9363 12.3532 13.1625 12.3755 13.368 12.4606C13.5736 12.5458 13.7493 12.69 13.8729 12.875C13.9965 13.06 14.0625 13.2775 14.0625 13.5C14.0625 13.7984 13.944 14.0845 13.733 14.2955C13.522 14.5065 13.2359 14.625 12.9375 14.625ZM15.75 12.9375H15.1088C14.9844 12.4557 14.7038 12.0288 14.3109 11.7234C13.9181 11.4181 13.4351 11.2516 12.9375 11.25V10.125H15.75V12.9375Z" fill="#272727"/>
</svg>
